<?xml version="1.0" encoding="UTF-8" standalone="no"?>
<!DOCTYPE svg PUBLIC "-//W3C//DTD SVG 1.1//EN"
 "http://www.w3.org/Graphics/SVG/1.1/DTD/svg11.dtd">
<!-- Generated by graphviz version 14.0.0 (20250921.2048)
 -->
<!-- Title: TranslatorArchitecture Pages: 1 -->
<svg width="1981pt" height="621pt"
 viewBox="0.00 0.00 1981.00 621.00" xmlns="http://www.w3.org/2000/svg" xmlns:xlink="http://www.w3.org/1999/xlink">
<g id="graph0" class="graph" transform="scale(1 1) rotate(0) translate(4 616.88)">
<title>TranslatorArchitecture</title>
<polygon fill="white" stroke="none" points="-4,4 -4,-616.88 1977.25,-616.88 1977.25,4 -4,4"/>
<g id="clust1" class="cluster">
<title>cluster_entry</title>
<polygon fill="lightblue" stroke="black" points="916.25,-430.63 916.25,-527.13 1016.25,-527.13 1016.25,-430.63 916.25,-430.63"/>
<text xml:space="preserve" text-anchor="middle" x="966.25" y="-511.73" font-family="Times,serif" font-size="12.00">Entry Point</text>
</g>
<g id="clust2" class="cluster">
<title>cluster_cli</title>
<polygon fill="lightsteelblue" stroke="black" points="903.25,-284.38 903.25,-388.88 1014.25,-388.88 1014.25,-284.38 903.25,-284.38"/>
<text xml:space="preserve" text-anchor="middle" x="958.75" y="-373.48" font-family="Times,serif" font-size="12.00">CLI Interface Layer</text>
</g>
<g id="clust3" class="cluster">
<title>cluster_core</title>
<polygon fill="lightgreen" stroke="black" points="422.25,-8.63 422.25,-246.63 554.25,-246.63 554.25,-8.63 422.25,-8.63"/>
<text xml:space="preserve" text-anchor="middle" x="488.25" y="-231.23" font-family="Times,serif" font-size="12.00">Core Translation Engine</text>
</g>
<g id="clust4" class="cluster">
<title>cluster_config</title>
<polygon fill="lightyellow" stroke="black" points="147.25,-8.63 147.25,-246.63 369.25,-246.63 369.25,-8.63 147.25,-8.63"/>
<text xml:space="preserve" text-anchor="middle" x="258.25" y="-231.23" font-family="Times,serif" font-size="12.00">Configuration &amp; Cost Management</text>
</g>
<g id="clust5" class="cluster">
<title>cluster_file</title>
<polygon fill="lightcyan" stroke="black" points="1525.25,-8.63 1525.25,-246.63 1759.25,-246.63 1759.25,-8.63 1525.25,-8.63"/>
<text xml:space="preserve" text-anchor="middle" x="1642.25" y="-231.23" font-family="Times,serif" font-size="12.00">File &amp; Content Processing</text>
</g>
<g id="clust6" class="cluster">
<title>cluster_logging</title>
<polygon fill="mistyrose" stroke="black" points="1194.25,-142.13 1194.25,-246.63 1308.25,-246.63 1308.25,-142.13 1194.25,-142.13"/>
<text xml:space="preserve" text-anchor="middle" x="1251.25" y="-231.23" font-family="Times,serif" font-size="12.00">Logging &amp; Analysis</text>
</g>
<g id="clust7" class="cluster">
<title>cluster_external</title>
<polygon fill="lightgray" stroke="black" points="562.25,-8 562.25,-113.75 1517.25,-113.75 1517.25,-8 562.25,-8"/>
<text xml:space="preserve" text-anchor="middle" x="1039.75" y="-98.35" font-family="Times,serif" font-size="12.00">External Dependencies</text>
</g>
<g id="clust8" class="cluster">
<title>cluster_tests</title>
<polygon fill="wheat" stroke="black" points="1767.25,-141.5 1767.25,-384.88 1965.25,-384.88 1965.25,-141.5 1767.25,-141.5"/>
<text xml:space="preserve" text-anchor="middle" x="1866.25" y="-369.48" font-family="Times,serif" font-size="12.00">Test Infrastructure</text>
</g>
<g id="clust9" class="cluster">
<title>cluster_build</title>
<polygon fill="lavender" stroke="black" points="1024.25,-274.38 1024.25,-541.13 1224.25,-541.13 1224.25,-274.38 1024.25,-274.38"/>
<text xml:space="preserve" text-anchor="middle" x="1124.25" y="-525.73" font-family="Times,serif" font-size="12.00">Build &amp; Package</text>
</g>
<!-- main_py -->
<g id="node1" class="node">
<title>main_py</title>
<polygon fill="lightblue" stroke="black" points="1008,-474.63 924.5,-474.63 924.5,-438.63 1008,-438.63 1008,-474.63"/>
<text xml:space="preserve" text-anchor="middle" x="966.25" y="-459.13" font-family="Arial" font-size="10.00">main.py</text>
<text xml:space="preserve" text-anchor="middle" x="966.25" y="-447.13" font-family="Arial" font-size="10.00">CLI Entry Point</text>
</g>
<!-- cli_py -->
<g id="node2" class="node">
<title>cli_py</title>
<polygon fill="cornflowerblue" stroke="black" points="1005.25,-336.38 929.25,-336.38 929.25,-292.38 1005.25,-292.38 1005.25,-336.38"/>
<text xml:space="preserve" text-anchor="middle" x="967.25" y="-322.88" font-family="Arial" font-size="10.00">cli.py</text>
<text xml:space="preserve" text-anchor="middle" x="967.25" y="-310.88" font-family="Arial" font-size="10.00">TranslatorCLI</text>
<text xml:space="preserve" text-anchor="middle" x="967.25" y="-298.88" font-family="Arial" font-size="10.00">(Orchestrator)</text>
</g>
<!-- main_py&#45;&gt;cli_py -->
<g id="edge1" class="edge">
<title>main_py&#45;&gt;cli_py</title>
<path fill="none" stroke="blue" stroke-width="3" d="M966.37,-438.15C966.53,-416.47 966.8,-378.96 967,-351.09"/>
<polygon fill="blue" stroke="blue" stroke-width="3" points="970.49,-351.32 967.07,-341.3 963.49,-351.27 970.49,-351.32"/>
<text xml:space="preserve" text-anchor="middle" x="975.66" y="-399.03" font-family="Arial" font-size="8.00">entry</text>
</g>
<!-- translator_py -->
<g id="node3" class="node">
<title>translator_py</title>
<polygon fill="limegreen" stroke="black" points="546.25,-194.13 476.25,-194.13 476.25,-150.13 546.25,-150.13 546.25,-194.13"/>
<text xml:space="preserve" text-anchor="middle" x="511.25" y="-180.63" font-family="Arial" font-size="10.00">translator.py</text>
<text xml:space="preserve" text-anchor="middle" x="511.25" y="-168.63" font-family="Arial" font-size="10.00">Translator</text>
<text xml:space="preserve" text-anchor="middle" x="511.25" y="-156.63" font-family="Arial" font-size="10.00">(Core Logic)</text>
</g>
<!-- cli_py&#45;&gt;translator_py -->
<g id="edge2" class="edge">
<title>cli_py&#45;&gt;translator_py</title>
<path fill="none" stroke="blue" stroke-width="2" d="M928.78,-313.73C836.87,-313.82 607.72,-309.39 548.5,-264.38 530.59,-250.77 521.25,-227.08 516.41,-207.25"/>
<polygon fill="blue" stroke="blue" stroke-width="2" points="519.86,-206.66 514.39,-197.58 513,-208.08 519.86,-206.66"/>
<text xml:space="preserve" text-anchor="middle" x="563.88" y="-256.78" font-family="Arial" font-size="8.00">translate</text>
</g>
<!-- config_py -->
<g id="node5" class="node">
<title>config_py</title>
<polygon fill="yellow" stroke="black" points="298.38,-60.63 196.12,-60.63 196.12,-16.63 298.38,-16.63 298.38,-60.63"/>
<text xml:space="preserve" text-anchor="middle" x="247.25" y="-47.13" font-family="Arial" font-size="10.00">config.py</text>
<text xml:space="preserve" text-anchor="middle" x="247.25" y="-35.13" font-family="Arial" font-size="10.00">ModelConfig</text>
<text xml:space="preserve" text-anchor="middle" x="247.25" y="-23.13" font-family="Arial" font-size="10.00">(Models &amp; Settings)</text>
</g>
<!-- cli_py&#45;&gt;config_py -->
<g id="edge8" class="edge">
<title>cli_py&#45;&gt;config_py</title>
<path fill="none" stroke="blue" stroke-width="2" d="M928.96,-313.39C771.44,-313 179.15,-307.49 125.25,-246.63 94.27,-211.66 105.45,-183.83 125.25,-141.5 139.78,-110.45 168.94,-85.54 195.11,-68.13"/>
<polygon fill="blue" stroke="blue" stroke-width="2" points="196.99,-71.08 203.54,-62.75 193.23,-65.18 196.99,-71.08"/>
<text xml:space="preserve" text-anchor="middle" x="135.75" y="-169.41" font-family="Arial" font-size="8.00">config</text>
</g>
<!-- cost_py -->
<g id="node6" class="node">
<title>cost_py</title>
<polygon fill="yellow" stroke="black" points="251.38,-194.13 155.12,-194.13 155.12,-150.13 251.38,-150.13 251.38,-194.13"/>
<text xml:space="preserve" text-anchor="middle" x="203.25" y="-180.63" font-family="Arial" font-size="10.00">cost.py</text>
<text xml:space="preserve" text-anchor="middle" x="203.25" y="-168.63" font-family="Arial" font-size="10.00">CostEstimator</text>
<text xml:space="preserve" text-anchor="middle" x="203.25" y="-156.63" font-family="Arial" font-size="10.00">(Price Calculation)</text>
</g>
<!-- cli_py&#45;&gt;cost_py -->
<g id="edge6" class="edge">
<title>cli_py&#45;&gt;cost_py</title>
<path fill="none" stroke="blue" stroke-width="2" d="M928.82,-313.88C827.18,-314.49 543.32,-311.47 313.25,-264.38 289.33,-259.49 281.18,-260.74 261.25,-246.63 245.81,-235.71 232.43,-219.53 222.42,-205.14"/>
<polygon fill="blue" stroke="blue" stroke-width="2" points="225.55,-203.52 217.11,-197.11 219.71,-207.38 225.55,-203.52"/>
<text xml:space="preserve" text-anchor="middle" x="328.25" y="-256.78" font-family="Arial" font-size="8.00">cost calc</text>
</g>
<!-- token_counter_py -->
<g id="node7" class="node">
<title>token_counter_py</title>
<polygon fill="yellow" stroke="black" points="360.75,-194.13 269.75,-194.13 269.75,-150.13 360.75,-150.13 360.75,-194.13"/>
<text xml:space="preserve" text-anchor="middle" x="315.25" y="-180.63" font-family="Arial" font-size="10.00">token_counter.py</text>
<text xml:space="preserve" text-anchor="middle" x="315.25" y="-168.63" font-family="Arial" font-size="10.00">TokenCounter</text>
<text xml:space="preserve" text-anchor="middle" x="315.25" y="-156.63" font-family="Arial" font-size="10.00">(Token Counting)</text>
</g>
<!-- cli_py&#45;&gt;token_counter_py -->
<g id="edge7" class="edge">
<title>cli_py&#45;&gt;token_counter_py</title>
<path fill="none" stroke="blue" stroke-width="2" d="M928.88,-312.86C813.36,-310.7 470.95,-299.86 375.25,-246.63 357.87,-236.97 343.55,-220.08 333.25,-204.92"/>
<polygon fill="blue" stroke="blue" stroke-width="2" points="336.45,-203.42 328.11,-196.87 330.55,-207.19 336.45,-203.42"/>
<text xml:space="preserve" text-anchor="middle" x="431.56" y="-256.78" font-family="Arial" font-size="8.00">tokens</text>
</g>
<!-- file_handler_py -->
<g id="node8" class="node">
<title>file_handler_py</title>
<polygon fill="cyan" stroke="black" points="1751.12,-194.13 1665.38,-194.13 1665.38,-150.13 1751.12,-150.13 1751.12,-194.13"/>
<text xml:space="preserve" text-anchor="middle" x="1708.25" y="-180.63" font-family="Arial" font-size="10.00">file_handler.py</text>
<text xml:space="preserve" text-anchor="middle" x="1708.25" y="-168.63" font-family="Arial" font-size="10.00">FileHandler</text>
<text xml:space="preserve" text-anchor="middle" x="1708.25" y="-156.63" font-family="Arial" font-size="10.00">(I/O Operations)</text>
</g>
<!-- cli_py&#45;&gt;file_handler_py -->
<g id="edge3" class="edge">
<title>cli_py&#45;&gt;file_handler_py</title>
<path fill="none" stroke="blue" stroke-width="2" d="M989.73,-292.08C998.56,-285.07 1009.21,-278.12 1020.25,-274.38 1047.83,-265.04 1515.25,-266.94 1544.25,-264.38 1569.35,-262.16 1634.85,-259.93 1656.25,-246.63 1671.86,-236.93 1684.1,-220.64 1692.77,-205.85"/>
<polygon fill="blue" stroke="blue" stroke-width="2" points="1695.81,-207.59 1697.51,-197.14 1689.66,-204.25 1695.81,-207.59"/>
<text xml:space="preserve" text-anchor="middle" x="1643.35" y="-256.78" font-family="Arial" font-size="8.00">file I/O</text>
</g>
<!-- frontmatter_handler_py -->
<g id="node9" class="node">
<title>frontmatter_handler_py</title>
<polygon fill="cyan" stroke="black" points="1647,-194.13 1533.5,-194.13 1533.5,-150.13 1647,-150.13 1647,-194.13"/>
<text xml:space="preserve" text-anchor="middle" x="1590.25" y="-180.63" font-family="Arial" font-size="10.00">frontmatter_handler.py</text>
<text xml:space="preserve" text-anchor="middle" x="1590.25" y="-168.63" font-family="Arial" font-size="10.00">FrontmatterHandler</text>
<text xml:space="preserve" text-anchor="middle" x="1590.25" y="-156.63" font-family="Arial" font-size="10.00">(YAML Processing)</text>
</g>
<!-- cli_py&#45;&gt;frontmatter_handler_py -->
<g id="edge4" class="edge">
<title>cli_py&#45;&gt;frontmatter_handler_py</title>
<path fill="none" stroke="blue" stroke-width="2" d="M990.07,-292.09C998.85,-285.17 1009.39,-278.28 1020.25,-274.38 1058.8,-260.56 1163.4,-267.27 1204.25,-264.38 1295.03,-257.97 1319.75,-267.85 1408.25,-246.63 1452.76,-235.96 1500.66,-216.25 1536.15,-199.93"/>
<polygon fill="blue" stroke="blue" stroke-width="2" points="1537.36,-203.23 1544.94,-195.82 1534.4,-196.89 1537.36,-203.23"/>
<text xml:space="preserve" text-anchor="middle" x="1385.78" y="-256.78" font-family="Arial" font-size="8.00">frontmatter</text>
</g>
<!-- log_interpreter_py -->
<g id="node11" class="node">
<title>log_interpreter_py</title>
<polygon fill="lightcoral" stroke="black" points="1300.12,-194.13 1202.38,-194.13 1202.38,-150.13 1300.12,-150.13 1300.12,-194.13"/>
<text xml:space="preserve" text-anchor="middle" x="1251.25" y="-180.63" font-family="Arial" font-size="10.00">log_interpreter.py</text>
<text xml:space="preserve" text-anchor="middle" x="1251.25" y="-168.63" font-family="Arial" font-size="10.00">LogInterpreter</text>
<text xml:space="preserve" text-anchor="middle" x="1251.25" y="-156.63" font-family="Arial" font-size="10.00">(Process Analysis)</text>
</g>
<!-- cli_py&#45;&gt;log_interpreter_py -->
<g id="edge5" class="edge">
<title>cli_py&#45;&gt;log_interpreter_py</title>
<path fill="none" stroke="blue" stroke-width="2" d="M990.37,-291.99C999.1,-285.15 1009.53,-278.34 1020.25,-274.38 1091.25,-248.17 1129.94,-294.87 1188.25,-246.63 1203.01,-234.43 1217.11,-218.52 1228.22,-204.63"/>
<polygon fill="blue" stroke="blue" stroke-width="2" points="1230.86,-206.93 1234.23,-196.89 1225.33,-202.64 1230.86,-206.93"/>
<text xml:space="preserve" text-anchor="middle" x="1187.35" y="-256.78" font-family="Arial" font-size="8.00">logging</text>
</g>
<!-- rich -->
<g id="node13" class="node">
<title>rich</title>
<ellipse fill="gray" stroke="black" cx="1458.25" cy="-38.63" rx="51.09" ry="22.63"/>
<text xml:space="preserve" text-anchor="middle" x="1458.25" y="-41.13" font-family="Arial" font-size="10.00">rich</text>
<text xml:space="preserve" text-anchor="middle" x="1458.25" y="-29.13" font-family="Arial" font-size="10.00">(Terminal UI)</text>
</g>
<!-- cli_py&#45;&gt;rich -->
<g id="edge15" class="edge">
<title>cli_py&#45;&gt;rich</title>
<path fill="none" stroke="gray" d="M995.24,-292.05C1003.21,-286.17 1011.98,-279.9 1020.25,-274.38 1040.11,-261.13 1047.75,-261.72 1066.25,-246.63 1115.51,-206.45 1108.1,-173.14 1163.25,-141.5 1198.77,-121.13 1212.67,-127.29 1253.25,-121.75 1285.23,-117.39 1369.52,-128.45 1398.25,-113.75 1416.68,-104.33 1431.42,-86.42 1441.68,-70.57"/>
<polygon fill="gray" stroke="gray" points="1444.48,-72.72 1446.69,-62.36 1438.5,-69.07 1444.48,-72.72"/>
<text xml:space="preserve" text-anchor="middle" x="1176.75" y="-169.41" font-family="Arial" font-size="8.00">console</text>
</g>
<!-- frontmatter -->
<g id="node15" class="node">
<title>frontmatter</title>
<ellipse fill="gray" stroke="black" cx="1066.25" cy="-38.63" rx="67.53" ry="22.63"/>
<text xml:space="preserve" text-anchor="middle" x="1066.25" y="-41.13" font-family="Arial" font-size="10.00">python&#45;frontmatter</text>
<text xml:space="preserve" text-anchor="middle" x="1066.25" y="-29.13" font-family="Arial" font-size="10.00">(YAML Parser)</text>
</g>
<!-- cli_py&#45;&gt;frontmatter -->
<g id="edge21" class="edge">
<title>cli_py&#45;&gt;frontmatter</title>
<path fill="none" stroke="gray" d="M975.02,-291.9C992.33,-244.04 1034.14,-128.43 1054.59,-71.87"/>
<polygon fill="gray" stroke="gray" points="1057.76,-73.41 1057.87,-62.81 1051.17,-71.02 1057.76,-73.41"/>
<text xml:space="preserve" text-anchor="middle" x="1045.08" y="-169.41" font-family="Arial" font-size="8.00">metadata</text>
</g>
<!-- dotenv -->
<g id="node17" class="node">
<title>dotenv</title>
<ellipse fill="gray" stroke="black" cx="758.25" cy="-38.63" rx="61.7" ry="22.63"/>
<text xml:space="preserve" text-anchor="middle" x="758.25" y="-41.13" font-family="Arial" font-size="10.00">python&#45;dotenv</text>
<text xml:space="preserve" text-anchor="middle" x="758.25" y="-29.13" font-family="Arial" font-size="10.00">(Config Loading)</text>
</g>
<!-- cli_py&#45;&gt;dotenv -->
<g id="edge23" class="edge">
<title>cli_py&#45;&gt;dotenv</title>
<path fill="none" stroke="gray" d="M932.36,-291.9C916.85,-280.44 899.93,-264.93 890.25,-246.63 877.79,-223.1 894.38,-147.14 876.25,-127.63"/>
<path fill="none" stroke="gray" d="M876.25,-125.63C860.49,-110.31 847.23,-124.83 828.25,-113.75 809.34,-102.72 792.35,-85.03 779.86,-69.71"/>
<polygon fill="gray" stroke="gray" points="782.9,-67.92 773.97,-62.21 777.39,-72.24 782.9,-67.92"/>
<text xml:space="preserve" text-anchor="middle" x="905.25" y="-169.41" font-family="Arial" font-size="8.00">env vars</text>
</g>
<!-- output -->
<g id="node25" class="node">
<title>output</title>
<polygon fill="lightgreen" stroke="black" points="74.5,-194.13 0,-194.13 0,-150.13 80.5,-150.13 80.5,-188.13 74.5,-194.13"/>
<polyline fill="none" stroke="black" points="74.5,-194.13 74.5,-188.13"/>
<polyline fill="none" stroke="black" points="80.5,-188.13 74.5,-188.13"/>
<text xml:space="preserve" text-anchor="middle" x="40.25" y="-180.63" font-family="Arial" font-size="10.00">Translated File</text>
<text xml:space="preserve" text-anchor="middle" x="40.25" y="-168.63" font-family="Arial" font-size="10.00">+ Cost Report</text>
<text xml:space="preserve" text-anchor="middle" x="40.25" y="-156.63" font-family="Arial" font-size="10.00">+ Logs</text>
</g>
<!-- cli_py&#45;&gt;output -->
<g id="edge46" class="edge">
<title>cli_py&#45;&gt;output</title>
<path fill="none" stroke="red" stroke-width="2" d="M928.94,-313.62C767.69,-314.32 149.27,-313.72 79,-264.38 60.28,-251.24 50.55,-227.15 45.53,-207.03"/>
<polygon fill="red" stroke="red" stroke-width="2" points="49,-206.53 43.49,-197.49 42.16,-208 49,-206.53"/>
<text xml:space="preserve" text-anchor="middle" x="90.62" y="-256.78" font-family="Arial" font-size="8.00">results</text>
</g>
<!-- prompts_py -->
<g id="node4" class="node">
<title>prompts_py</title>
<polygon fill="lightgreen" stroke="black" points="544.75,-60.63 477.75,-60.63 477.75,-16.63 544.75,-16.63 544.75,-60.63"/>
<text xml:space="preserve" text-anchor="middle" x="511.25" y="-47.13" font-family="Arial" font-size="10.00">prompts.py</text>
<text xml:space="preserve" text-anchor="middle" x="511.25" y="-35.13" font-family="Arial" font-size="10.00">Prompts</text>
<text xml:space="preserve" text-anchor="middle" x="511.25" y="-23.13" font-family="Arial" font-size="10.00">(Templates)</text>
</g>
<!-- translator_py&#45;&gt;prompts_py -->
<g id="edge9" class="edge">
<title>translator_py&#45;&gt;prompts_py</title>
<path fill="none" stroke="green" stroke-width="2" d="M511.25,-149.71C511.25,-129.17 511.25,-97.83 511.25,-73.84"/>
<polygon fill="green" stroke="green" stroke-width="2" points="514.75,-74.07 511.25,-64.07 507.75,-74.07 514.75,-74.07"/>
<text xml:space="preserve" text-anchor="middle" x="528.5" y="-123.9" font-family="Arial" font-size="8.00">templates</text>
</g>
<!-- openai -->
<g id="node12" class="node">
<title>openai</title>
<ellipse fill="gray" stroke="black" cx="1342.25" cy="-38.63" rx="47.38" ry="22.63"/>
<text xml:space="preserve" text-anchor="middle" x="1342.25" y="-41.13" font-family="Arial" font-size="10.00">openai</text>
<text xml:space="preserve" text-anchor="middle" x="1342.25" y="-29.13" font-family="Arial" font-size="10.00">(API Client)</text>
</g>
<!-- translator_py&#45;&gt;openai -->
<g id="edge13" class="edge">
<title>translator_py&#45;&gt;openai</title>
<path fill="none" stroke="gray" d="M546.29,-167.85C608.33,-162.1 741.6,-150 854.25,-141.5 857.24,-141.28 1282.6,-115.17 1285.25,-113.75 1302.99,-104.29 1316.91,-86.63 1326.55,-70.93"/>
<polygon fill="gray" stroke="gray" points="1329.56,-72.71 1331.51,-62.3 1323.49,-69.22 1329.56,-72.71"/>
<text xml:space="preserve" text-anchor="middle" x="1184.17" y="-123.9" font-family="Arial" font-size="8.00">API calls</text>
</g>
<!-- swarm -->
<g id="node18" class="node">
<title>swarm</title>
<ellipse fill="gray" stroke="black" cx="909.25" cy="-38.63" rx="71.77" ry="22.63"/>
<text xml:space="preserve" text-anchor="middle" x="909.25" y="-41.13" font-family="Arial" font-size="10.00">swarm</text>
<text xml:space="preserve" text-anchor="middle" x="909.25" y="-29.13" font-family="Arial" font-size="10.00">(OpenAI Extension)</text>
</g>
<!-- translator_py&#45;&gt;swarm -->
<g id="edge24" class="edge">
<title>translator_py&#45;&gt;swarm</title>
<path fill="none" stroke="gray" stroke-dasharray="5,2" d="M546.56,-168.51C637.67,-161.61 874.52,-142.68 887.25,-131.5 903.66,-117.1 908.95,-92.83 910.25,-72.85"/>
<polygon fill="gray" stroke="gray" points="913.75,-73.01 910.56,-62.91 906.75,-72.79 913.75,-73.01"/>
<text xml:space="preserve" text-anchor="middle" x="913.53" y="-123.9" font-family="Arial" font-size="8.00">future use</text>
</g>
<!-- cost_py&#45;&gt;config_py -->
<g id="edge10" class="edge">
<title>cost_py&#45;&gt;config_py</title>
<path fill="none" stroke="green" d="M210.42,-149.71C217.48,-128.6 228.36,-96.08 236.47,-71.85"/>
<polygon fill="green" stroke="green" points="239.75,-73.07 239.61,-62.47 233.11,-70.85 239.75,-73.07"/>
<text xml:space="preserve" text-anchor="middle" x="237.11" y="-123.9" font-family="Arial" font-size="8.00">model info</text>
</g>
<!-- token_counter_py&#45;&gt;config_py -->
<g id="edge11" class="edge">
<title>token_counter_py&#45;&gt;config_py</title>
<path fill="none" stroke="green" d="M304.17,-149.71C293.16,-128.41 276.13,-95.49 263.57,-71.19"/>
<polygon fill="green" stroke="green" points="266.72,-69.66 259.02,-62.38 260.5,-72.87 266.72,-69.66"/>
<text xml:space="preserve" text-anchor="middle" x="311.63" y="-123.9" font-family="Arial" font-size="8.00">model info</text>
</g>
<!-- tiktoken -->
<g id="node14" class="node">
<title>tiktoken</title>
<ellipse fill="gray" stroke="black" cx="624.25" cy="-38.63" rx="54.27" ry="22.63"/>
<text xml:space="preserve" text-anchor="middle" x="624.25" y="-41.13" font-family="Arial" font-size="10.00">tiktoken</text>
<text xml:space="preserve" text-anchor="middle" x="624.25" y="-29.13" font-family="Arial" font-size="10.00">(Tokenization)</text>
</g>
<!-- token_counter_py&#45;&gt;tiktoken -->
<g id="edge19" class="edge">
<title>token_counter_py&#45;&gt;tiktoken</title>
<path fill="none" stroke="gray" d="M352.76,-149.76C360.02,-146.45 367.72,-143.48 375.25,-141.5 414.64,-131.17 522.53,-151.07 558.25,-131.5 582.27,-118.35 599.7,-92.26 610.6,-71.24"/>
<polygon fill="gray" stroke="gray" points="613.64,-72.98 614.9,-62.46 607.36,-69.9 613.64,-72.98"/>
<text xml:space="preserve" text-anchor="middle" x="585.44" y="-123.9" font-family="Arial" font-size="8.00">tokenize</text>
</g>
<!-- language_py -->
<g id="node10" class="node">
<title>language_py</title>
<polygon fill="cyan" stroke="black" points="1675,-60.63 1579.5,-60.63 1579.5,-16.63 1675,-16.63 1675,-60.63"/>
<text xml:space="preserve" text-anchor="middle" x="1627.25" y="-47.13" font-family="Arial" font-size="10.00">language.py</text>
<text xml:space="preserve" text-anchor="middle" x="1627.25" y="-35.13" font-family="Arial" font-size="10.00">LanguageHandler</text>
<text xml:space="preserve" text-anchor="middle" x="1627.25" y="-23.13" font-family="Arial" font-size="10.00">(Language Codes)</text>
</g>
<!-- file_handler_py&#45;&gt;language_py -->
<g id="edge12" class="edge">
<title>file_handler_py&#45;&gt;language_py</title>
<path fill="none" stroke="green" d="M1695.06,-149.71C1681.82,-128.22 1661.29,-94.9 1646.29,-70.54"/>
<polygon fill="green" stroke="green" points="1649.46,-69.01 1641.23,-62.33 1643.5,-72.68 1649.46,-69.01"/>
<text xml:space="preserve" text-anchor="middle" x="1701.18" y="-123.9" font-family="Arial" font-size="8.00">lang codes</text>
</g>
<!-- file_handler_py&#45;&gt;rich -->
<g id="edge16" class="edge">
<title>file_handler_py&#45;&gt;rich</title>
<path fill="none" stroke="gray" d="M1673.98,-149.76C1668.2,-146.69 1662.15,-143.81 1656.25,-141.5 1619.71,-127.26 1608.73,-129.31 1570.25,-121.75 1548.6,-117.51 1540.46,-124.61 1521.25,-113.75 1502.98,-103.44 1487.61,-85.68 1476.62,-70.13"/>
<polygon fill="gray" stroke="gray" points="1479.69,-68.42 1471.21,-62.08 1473.88,-72.33 1479.69,-68.42"/>
<text xml:space="preserve" text-anchor="middle" x="1637.75" y="-123.9" font-family="Arial" font-size="8.00">console</text>
</g>
<!-- frontmatter_handler_py&#45;&gt;rich -->
<g id="edge17" class="edge">
<title>frontmatter_handler_py&#45;&gt;rich</title>
<path fill="none" stroke="gray" d="M1562.44,-149.82C1549.47,-139.44 1534.1,-126.47 1521.25,-113.75 1507.17,-99.82 1492.76,-83.09 1481.29,-69.06"/>
<polygon fill="gray" stroke="gray" points="1484.16,-67.04 1475.15,-61.46 1478.71,-71.44 1484.16,-67.04"/>
<text xml:space="preserve" text-anchor="middle" x="1552.81" y="-123.9" font-family="Arial" font-size="8.00">console</text>
</g>
<!-- frontmatter_handler_py&#45;&gt;frontmatter -->
<g id="edge20" class="edge">
<title>frontmatter_handler_py&#45;&gt;frontmatter</title>
<path fill="none" stroke="gray" d="M1533.46,-156.7C1485.1,-145.07 1413.59,-129.44 1350.25,-121.75 1327.4,-118.98 1164.43,-122.77 1143.25,-113.75 1121.35,-104.43 1102.07,-85.85 1088.28,-69.62"/>
<polygon fill="gray" stroke="gray" points="1091.18,-67.64 1082.16,-62.09 1085.75,-72.06 1091.18,-67.64"/>
<text xml:space="preserve" text-anchor="middle" x="1431.78" y="-123.9" font-family="Arial" font-size="8.00">YAML parse</text>
</g>
<!-- pycountry -->
<g id="node16" class="node">
<title>pycountry</title>
<ellipse fill="gray" stroke="black" cx="1214.25" cy="-38.63" rx="62.23" ry="22.63"/>
<text xml:space="preserve" text-anchor="middle" x="1214.25" y="-41.13" font-family="Arial" font-size="10.00">pycountry</text>
<text xml:space="preserve" text-anchor="middle" x="1214.25" y="-29.13" font-family="Arial" font-size="10.00">(Country Codes)</text>
</g>
<!-- language_py&#45;&gt;pycountry -->
<g id="edge22" class="edge">
<title>language_py&#45;&gt;pycountry</title>
<path fill="none" stroke="gray" d="M1602.9,-61.07C1582.71,-78.04 1552.38,-99.98 1521.25,-109.42 1471.27,-124.57 1334.58,-129.2 1286.25,-109.42 1266.31,-101.26 1248.93,-84.62 1236.24,-69.53"/>
<polygon fill="gray" stroke="gray" points="1239.25,-67.69 1230.27,-62.07 1233.79,-72.07 1239.25,-67.69"/>
<text xml:space="preserve" text-anchor="middle" x="1321.25" y="-123.9" font-family="Arial" font-size="8.00">country codes</text>
</g>
<!-- log_interpreter_py&#45;&gt;openai -->
<g id="edge14" class="edge">
<title>log_interpreter_py&#45;&gt;openai</title>
<path fill="none" stroke="gray" d="M1217.21,-149.76C1207.32,-140.99 1201.12,-130.79 1209.25,-121.75 1220.61,-109.13 1270.43,-122.05 1285.25,-113.75 1302.68,-104 1316.53,-86.5 1326.2,-70.95"/>
<polygon fill="gray" stroke="gray" points="1329.16,-72.82 1331.19,-62.42 1323.12,-69.29 1329.16,-72.82"/>
<text xml:space="preserve" text-anchor="middle" x="1224.25" y="-123.9" font-family="Arial" font-size="8.00">API calls</text>
</g>
<!-- log_interpreter_py&#45;&gt;rich -->
<g id="edge18" class="edge">
<title>log_interpreter_py&#45;&gt;rich</title>
<path fill="none" stroke="gray" d="M1251.85,-149.81C1253.32,-139.72 1256.92,-128.46 1265.25,-121.75 1288.32,-103.2 1371.92,-127.3 1398.25,-113.75 1416.66,-104.28 1431.4,-86.38 1441.66,-70.54"/>
<polygon fill="gray" stroke="gray" points="1444.45,-72.69 1446.68,-62.33 1438.48,-69.04 1444.45,-72.69"/>
<text xml:space="preserve" text-anchor="middle" x="1278.75" y="-123.9" font-family="Arial" font-size="8.00">console</text>
</g>
<!-- test_translator -->
<g id="node19" class="node">
<title>test_translator</title>
<polygon fill="orange" stroke="black" points="1957.12,-332.38 1865.38,-332.38 1865.38,-296.38 1957.12,-296.38 1957.12,-332.38"/>
<text xml:space="preserve" text-anchor="middle" x="1911.25" y="-310.88" font-family="Arial" font-size="10.00">test_translator.py</text>
</g>
<!-- test_translator&#45;&gt;translator_py -->
<g id="edge25" class="edge">
<title>test_translator&#45;&gt;translator_py</title>
<path fill="none" stroke="orange" stroke-dasharray="5,2" d="M1892.08,-295.99C1882.11,-287.99 1869.31,-279.22 1856.25,-274.38 1811.25,-257.71 1796.3,-270.84 1748.75,-264.38 1724.37,-261.07 1718.75,-256.92 1694.25,-254.63 1508.39,-237.25 1039.79,-267.18 854.25,-246.63 746.39,-234.69 622.5,-203.76 557.15,-186.06"/>
<polygon fill="orange" stroke="orange" points="558.45,-182.79 547.88,-183.53 556.6,-189.54 558.45,-182.79"/>
<text xml:space="preserve" text-anchor="middle" x="1757" y="-256.78" font-family="Arial" font-size="8.00">tests</text>
</g>
<!-- pytest -->
<g id="node21" class="node">
<title>pytest</title>
<ellipse fill="gray" stroke="black" cx="1828.25" cy="-172.13" rx="53.21" ry="22.63"/>
<text xml:space="preserve" text-anchor="middle" x="1828.25" y="-174.63" font-family="Arial" font-size="10.00">pytest</text>
<text xml:space="preserve" text-anchor="middle" x="1828.25" y="-162.63" font-family="Arial" font-size="10.00">(Test Runner)</text>
</g>
<!-- test_translator&#45;&gt;pytest -->
<g id="edge34" class="edge">
<title>test_translator&#45;&gt;pytest</title>
<path fill="none" stroke="gray" stroke-dasharray="5,2" d="M1886.85,-296.08C1876.68,-286.94 1866.65,-274.67 1864.25,-260.51"/>
</g>
<!-- test_cli -->
<g id="node20" class="node">
<title>test_cli</title>
<polygon fill="orange" stroke="black" points="1847.38,-332.38 1775.12,-332.38 1775.12,-296.38 1847.38,-296.38 1847.38,-332.38"/>
<text xml:space="preserve" text-anchor="middle" x="1811.25" y="-316.88" font-family="Arial" font-size="10.00">test_*.py</text>
<text xml:space="preserve" text-anchor="middle" x="1811.25" y="-304.88" font-family="Arial" font-size="10.00">(Other Tests)</text>
</g>
<!-- test_cli&#45;&gt;cli_py -->
<g id="edge26" class="edge">
<title>test_cli&#45;&gt;cli_py</title>
<path fill="none" stroke="orange" stroke-dasharray="5,2" d="M1774.9,-320.45C1683.43,-335.36 1436.16,-373.54 1228.25,-386.32 1135.98,-391.99 1102.76,-428.01 1020.25,-386.32 1003.71,-377.96 991.07,-361.75 982.29,-346.82"/>
<polygon fill="orange" stroke="orange" points="985.41,-345.24 977.55,-338.14 979.27,-348.59 985.41,-345.24"/>
<text xml:space="preserve" text-anchor="middle" x="1501.25" y="-399.03" font-family="Arial" font-size="8.00">tests</text>
</g>
<!-- test_cli&#45;&gt;config_py -->
<g id="edge31" class="edge">
<title>test_cli&#45;&gt;config_py</title>
<path fill="none" stroke="orange" stroke-dasharray="5,2" d="M1774.72,-313.17C1682.92,-312.02 1435.52,-305.07 1234.25,-264.38 1220.51,-261.6 1218.09,-256.89 1204.25,-254.63 1182.25,-251.03 419.57,-260.03 401.75,-246.63 362.77,-217.32 397.19,-182.17 370.25,-141.5 350.27,-111.34 318.7,-85.46 292.55,-67.33"/>
<polygon fill="orange" stroke="orange" points="294.7,-64.56 284.45,-61.86 290.78,-70.36 294.7,-64.56"/>
<text xml:space="preserve" text-anchor="middle" x="410" y="-169.41" font-family="Arial" font-size="8.00">tests</text>
</g>
<!-- test_cli&#45;&gt;cost_py -->
<g id="edge29" class="edge">
<title>test_cli&#45;&gt;cost_py</title>
<path fill="none" stroke="orange" stroke-dasharray="5,2" d="M1774.79,-310.24C1683.07,-302.5 1435.28,-282.52 1228.25,-274.38 1134.04,-270.68 473.16,-277.2 379.75,-264.38 363.11,-262.1 359.77,-257.62 343.25,-254.63 325.23,-251.37 277.32,-255.41 261.25,-246.63 243.7,-237.04 229.62,-219.69 219.73,-204.26"/>
<polygon fill="orange" stroke="orange" points="222.78,-202.54 214.62,-195.78 216.79,-206.16 222.78,-202.54"/>
<text xml:space="preserve" text-anchor="middle" x="388" y="-256.78" font-family="Arial" font-size="8.00">tests</text>
</g>
<!-- test_cli&#45;&gt;token_counter_py -->
<g id="edge30" class="edge">
<title>test_cli&#45;&gt;token_counter_py</title>
<path fill="none" stroke="orange" stroke-dasharray="5,2" d="M1774.78,-310.51C1683.03,-303.37 1435.19,-284.67 1228.25,-274.38 1222.33,-274.09 380.56,-249.26 375.25,-246.63 356.79,-237.5 342.05,-219.75 331.79,-203.98"/>
<polygon fill="orange" stroke="orange" points="335,-202.51 326.79,-195.81 329.03,-206.17 335,-202.51"/>
<text xml:space="preserve" text-anchor="middle" x="885.68" y="-256.78" font-family="Arial" font-size="8.00">tests</text>
</g>
<!-- test_cli&#45;&gt;file_handler_py -->
<g id="edge27" class="edge">
<title>test_cli&#45;&gt;file_handler_py</title>
<path fill="none" stroke="orange" stroke-dasharray="5,2" d="M1798.41,-295.9C1781.46,-272.81 1751.32,-231.78 1730.59,-203.55"/>
<polygon fill="orange" stroke="orange" points="1733.58,-201.72 1724.84,-195.73 1727.94,-205.86 1733.58,-201.72"/>
<text xml:space="preserve" text-anchor="middle" x="1783.24" y="-256.78" font-family="Arial" font-size="8.00">tests</text>
</g>
<!-- test_cli&#45;&gt;frontmatter_handler_py -->
<g id="edge28" class="edge">
<title>test_cli&#45;&gt;frontmatter_handler_py</title>
<path fill="none" stroke="orange" stroke-dasharray="5,2" d="M1774.66,-303.61C1746.97,-295.37 1708.59,-282.08 1677.75,-264.38 1667,-258.21 1665.19,-255.21 1656.25,-246.63 1642.04,-233 1627.29,-216.8 1615.36,-203.09"/>
<polygon fill="orange" stroke="orange" points="1618.12,-200.93 1608.94,-195.64 1612.81,-205.5 1618.12,-200.93"/>
<text xml:space="preserve" text-anchor="middle" x="1686" y="-256.78" font-family="Arial" font-size="8.00">tests</text>
</g>
<!-- test_cli&#45;&gt;language_py -->
<g id="edge32" class="edge">
<title>test_cli&#45;&gt;language_py</title>
<path fill="none" stroke="orange" stroke-dasharray="5,2" d="M1830.75,-296.04C1838.59,-289.19 1847.76,-281.31 1856.25,-274.38 1861.9,-269.77 1863.58,-268.96 1869.25,-264.38 1878.76,-256.71 1885.11,-257.72 1890.25,-246.63 1909.92,-204.25 1916.66,-180.05 1890.25,-141.5 1844.73,-75.05 1749.1,-51.93 1686.57,-43.9"/>
<polygon fill="orange" stroke="orange" points="1687.14,-40.44 1676.8,-42.75 1686.32,-47.39 1687.14,-40.44"/>
<text xml:space="preserve" text-anchor="middle" x="1915.87" y="-169.41" font-family="Arial" font-size="8.00">tests</text>
</g>
<!-- test_cli&#45;&gt;log_interpreter_py -->
<g id="edge33" class="edge">
<title>test_cli&#45;&gt;log_interpreter_py</title>
<path fill="none" stroke="orange" stroke-dasharray="5,2" d="M1774.94,-307.48C1720.94,-298.62 1616.34,-281.13 1527.75,-264.38 1506.57,-260.38 1501.61,-257.48 1480.25,-254.63 1452,-250.87 1379.06,-256.29 1352.25,-246.63 1325.65,-237.05 1299.96,-218.17 1281.14,-201.94"/>
<polygon fill="orange" stroke="orange" points="1283.67,-199.51 1273.87,-195.49 1279.02,-204.75 1283.67,-199.51"/>
<text xml:space="preserve" text-anchor="middle" x="1536" y="-256.78" font-family="Arial" font-size="8.00">tests</text>
</g>
<!-- test_cli&#45;&gt;pytest -->
<g id="edge35" class="edge">
<title>test_cli&#45;&gt;pytest</title>
<path fill="none" stroke="gray" stroke-dasharray="5,2" d="M1831.71,-295.89C1846.97,-282.41 1865.06,-265.28 1864.25,-260.51"/>
<path fill="none" stroke="gray" stroke-dasharray="5,2" d="M1864.25,-258.51C1861.08,-239.82 1853.2,-220.25 1845.62,-204.57"/>
<polygon fill="gray" stroke="gray" points="1848.8,-203.1 1841.17,-195.75 1842.55,-206.25 1848.8,-203.1"/>
</g>
<!-- pyproject_toml -->
<g id="node22" class="node">
<title>pyproject_toml</title>
<polygon fill="plum" stroke="black" points="1124.25,-346.38 1032.5,-314.38 1124.25,-282.38 1216,-314.38 1124.25,-346.38"/>
<text xml:space="preserve" text-anchor="middle" x="1124.25" y="-316.88" font-family="Arial" font-size="10.00">pyproject.toml</text>
<text xml:space="preserve" text-anchor="middle" x="1124.25" y="-304.88" font-family="Arial" font-size="10.00">(Package Config)</text>
</g>
<!-- pyproject_toml&#45;&gt;openai -->
<g id="edge36" class="edge">
<title>pyproject_toml&#45;&gt;openai</title>
<path fill="none" stroke="purple" stroke-dasharray="1,5" d="M1374.25,-258.51C1397.74,-231.06 1369.43,-125.76 1352.76,-71.85"/>
<polygon fill="purple" stroke="purple" points="1356.2,-71.1 1349.86,-62.61 1349.52,-73.2 1356.2,-71.1"/>
<text xml:space="preserve" text-anchor="middle" x="1398.2" y="-169.41" font-family="Arial" font-size="8.00">declares</text>
</g>
<!-- pyproject_toml&#45;&gt;rich -->
<g id="edge37" class="edge">
<title>pyproject_toml&#45;&gt;rich</title>
<path fill="none" stroke="purple" stroke-dasharray="1,5" d="M1374.25,-258.51C1387.39,-243.66 1403.68,-261.09 1417.25,-246.63 1461.66,-199.3 1464.24,-118.34 1461.62,-72.96"/>
<polygon fill="purple" stroke="purple" points="1465.12,-72.93 1460.92,-63.21 1458.14,-73.43 1465.12,-72.93"/>
</g>
<!-- pyproject_toml&#45;&gt;tiktoken -->
<g id="edge38" class="edge">
<title>pyproject_toml&#45;&gt;tiktoken</title>
<path fill="none" stroke="purple" stroke-dasharray="1,5" d="M1082.7,-296.39C1063.34,-288.92 1039.86,-280.47 1018.25,-274.38 957.62,-257.29 937.24,-271.23 879.25,-246.63 783.72,-206.1 764.17,-183.41 687.25,-113.75 672.56,-100.46 658.11,-83.78 646.76,-69.62"/>
<polygon fill="purple" stroke="purple" points="649.64,-67.62 640.71,-61.92 644.14,-71.95 649.64,-67.62"/>
</g>
<!-- pyproject_toml&#45;&gt;frontmatter -->
<g id="edge39" class="edge">
<title>pyproject_toml&#45;&gt;frontmatter</title>
<path fill="none" stroke="purple" stroke-dasharray="1,5" d="M1125.9,-282.56C1126.43,-253.45 1124.53,-209.02 1111.25,-173.13"/>
<path fill="none" stroke="purple" stroke-dasharray="1,5" d="M1111.25,-171.13C1097.11,-140.81 1063.53,-160.73 1047.25,-131.5 1037.09,-113.27 1041.86,-90.27 1049.16,-71.85"/>
<polygon fill="purple" stroke="purple" points="1052.36,-73.27 1053.18,-62.71 1045.95,-70.46 1052.36,-73.27"/>
</g>
<!-- pyproject_toml&#45;&gt;pycountry -->
<g id="edge40" class="edge">
<title>pyproject_toml&#45;&gt;pycountry</title>
<path fill="none" stroke="purple" stroke-dasharray="1,5" d="M1111.25,-171.13C1106.44,-159.6 1154.81,-103.96 1186.93,-68.86"/>
<polygon fill="purple" stroke="purple" points="1189.48,-71.25 1193.67,-61.52 1184.33,-66.51 1189.48,-71.25"/>
</g>
<!-- pyproject_toml&#45;&gt;dotenv -->
<g id="edge41" class="edge">
<title>pyproject_toml&#45;&gt;dotenv</title>
<path fill="none" stroke="purple" stroke-dasharray="1,5" d="M1077.95,-298.18C1049.46,-287.16 1013.51,-270.06 987.25,-246.63 945.9,-209.75 964.21,-175.23 920.25,-141.5 903.98,-129.02 890.95,-141.92 876.25,-127.63"/>
</g>
<!-- pyproject_toml&#45;&gt;swarm -->
<g id="edge42" class="edge">
<title>pyproject_toml&#45;&gt;swarm</title>
<path fill="none" stroke="purple" stroke-dasharray="1,5" d="M1374.25,-258.51C1381.41,-250.01 1359.57,-254.99 1352.25,-246.63 1319.3,-209.04 1352.91,-170.59 1312.25,-141.5 1286.03,-122.75 1053.37,-139.92 1022.25,-131.5 985.89,-121.68 953.58,-92.18 932.92,-69.22"/>
<polygon fill="purple" stroke="purple" points="935.79,-67.19 926.59,-61.95 930.51,-71.79 935.79,-67.19"/>
<path fill="none" stroke="purple" stroke-dasharray="1,5" d="M1197.96,-307.58C1263.27,-300.77 1351.68,-286.88 1374.25,-260.51"/>
</g>
<!-- pyproject_toml&#45;&gt;pytest -->
<g id="edge43" class="edge">
<title>pyproject_toml&#45;&gt;pytest</title>
<path fill="none" stroke="purple" stroke-dasharray="1,5" d="M1208.61,-311.29C1315.39,-307.36 1504.55,-296.17 1663.25,-264.38 1677.41,-261.55 1680.12,-257.64 1694.25,-254.63 1724.44,-248.19 1735.88,-260.92 1763.25,-246.63 1782.01,-236.84 1797.87,-219.25 1809.22,-203.73"/>
<polygon fill="purple" stroke="purple" points="1812,-205.87 1814.83,-195.66 1806.25,-201.87 1812,-205.87"/>
</g>
<!-- uv_lock -->
<g id="node23" class="node">
<title>uv_lock</title>
<polygon fill="plum" stroke="black" points="1124.25,-488.63 1040,-456.63 1124.25,-424.63 1208.5,-456.63 1124.25,-488.63"/>
<text xml:space="preserve" text-anchor="middle" x="1124.25" y="-459.13" font-family="Arial" font-size="10.00">uv.lock</text>
<text xml:space="preserve" text-anchor="middle" x="1124.25" y="-447.13" font-family="Arial" font-size="10.00">(Dependencies)</text>
</g>
<!-- uv_lock&#45;&gt;pyproject_toml -->
<g id="edge44" class="edge">
<title>uv_lock&#45;&gt;pyproject_toml</title>
<path fill="none" stroke="purple" d="M1124.25,-424.16C1124.25,-404.67 1124.25,-379.39 1124.25,-358.1"/>
<polygon fill="purple" stroke="purple" points="1127.75,-358.27 1124.25,-348.27 1120.75,-358.27 1127.75,-358.27"/>
<text xml:space="preserve" text-anchor="middle" x="1132.88" y="-399.03" font-family="Arial" font-size="8.00">locks</text>
</g>
<!-- input -->
<g id="node24" class="node">
<title>input</title>
<polygon fill="lightblue" stroke="black" points="1003.12,-612.88 923.38,-612.88 923.38,-576.88 1009.12,-576.88 1009.12,-606.88 1003.12,-612.88"/>
<polyline fill="none" stroke="black" points="1003.12,-612.88 1003.12,-606.88"/>
<polyline fill="none" stroke="black" points="1009.12,-606.88 1003.12,-606.88"/>
<text xml:space="preserve" text-anchor="middle" x="966.25" y="-597.38" font-family="Arial" font-size="10.00">User Input</text>
<text xml:space="preserve" text-anchor="middle" x="966.25" y="-585.38" font-family="Arial" font-size="10.00">(file + language)</text>
</g>
<!-- input&#45;&gt;main_py -->
<g id="edge45" class="edge">
<title>input&#45;&gt;main_py</title>
<path fill="none" stroke="red" stroke-width="2" d="M966.25,-576.63C966.25,-554.21 966.25,-514.71 966.25,-487.4"/>
<polygon fill="red" stroke="red" stroke-width="2" points="969.75,-487.78 966.25,-477.78 962.75,-487.78 969.75,-487.78"/>
<text xml:space="preserve" text-anchor="middle" x="992.88" y="-551.28" font-family="Arial" font-size="8.00">user command</text>
</g>
<!-- legend_entry -->
<g id="node26" class="node">
<title>legend_entry</title>
<polygon fill="lightblue" stroke="black" points="1091.62,-612.88 1026.88,-612.88 1026.88,-576.88 1091.62,-576.88 1091.62,-612.88"/>
<text xml:space="preserve" text-anchor="middle" x="1059.25" y="-591.38" font-family="Arial" font-size="10.00">Entry Point</text>
</g>
<!-- legend_cli -->
<g id="node27" class="node">
<title>legend_cli</title>
<polygon fill="cornflowerblue" stroke="black" points="1211.62,-612.88 1152.88,-612.88 1152.88,-576.88 1211.62,-576.88 1211.62,-612.88"/>
<text xml:space="preserve" text-anchor="middle" x="1182.25" y="-591.38" font-family="Arial" font-size="10.00">CLI Layer</text>
</g>
<!-- legend_entry&#45;&gt;legend_cli -->
<g id="edge47" class="edge">
<title>legend_entry&#45;&gt;legend_cli</title>
<path fill="none" stroke="blue" stroke-width="2" d="M1091.89,-594.88C1106.57,-594.88 1124.08,-594.88 1139.77,-594.88"/>
<polygon fill="blue" stroke="blue" stroke-width="2" points="1139.38,-598.38 1149.38,-594.88 1139.38,-591.38 1139.38,-598.38"/>
<text xml:space="preserve" text-anchor="middle" x="1122.25" y="-600.03" font-family="Arial" font-size="8.00">primary flow</text>
</g>
<!-- legend_ext -->
<g id="node30" class="node">
<title>legend_ext</title>
<ellipse fill="gray" stroke="black" cx="1324.25" cy="-594.88" rx="47.05" ry="18"/>
<text xml:space="preserve" text-anchor="middle" x="1324.25" y="-591.38" font-family="Arial" font-size="10.00">External Deps</text>
</g>
<!-- legend_cli&#45;&gt;legend_ext -->
<g id="edge49" class="edge">
<title>legend_cli&#45;&gt;legend_ext</title>
<path fill="none" stroke="gray" d="M1212.02,-594.88C1227.58,-594.88 1247.17,-594.88 1265.62,-594.88"/>
<polygon fill="gray" stroke="gray" points="1265.4,-598.38 1275.4,-594.88 1265.4,-591.38 1265.4,-598.38"/>
<text xml:space="preserve" text-anchor="middle" x="1244.41" y="-600.03" font-family="Arial" font-size="8.00">external deps</text>
</g>
<!-- legend_core -->
<g id="node28" class="node">
<title>legend_core</title>
<polygon fill="limegreen" stroke="black" points="1571.88,-612.88 1508.62,-612.88 1508.62,-576.88 1571.88,-576.88 1571.88,-612.88"/>
<text xml:space="preserve" text-anchor="middle" x="1540.25" y="-591.38" font-family="Arial" font-size="10.00">Core Logic</text>
</g>
<!-- legend_util -->
<g id="node29" class="node">
<title>legend_util</title>
<polygon fill="yellow" stroke="black" points="1689.25,-612.88 1635.25,-612.88 1635.25,-576.88 1689.25,-576.88 1689.25,-612.88"/>
<text xml:space="preserve" text-anchor="middle" x="1662.25" y="-591.38" font-family="Arial" font-size="10.00">Utilities</text>
</g>
<!-- legend_core&#45;&gt;legend_util -->
<g id="edge48" class="edge">
<title>legend_core&#45;&gt;legend_util</title>
<path fill="none" stroke="green" d="M1572.3,-594.88C1587.98,-594.88 1606.98,-594.88 1623.48,-594.88"/>
<polygon fill="green" stroke="green" points="1623.44,-598.38 1633.44,-594.88 1623.44,-591.38 1623.44,-598.38"/>
<text xml:space="preserve" text-anchor="middle" x="1603.56" y="-600.03" font-family="Arial" font-size="8.00">internal deps</text>
</g>
<!-- legend_test -->
<g id="node31" class="node">
<title>legend_test</title>
<polygon fill="orange" stroke="black" points="1443.25,-612.88 1389.25,-612.88 1389.25,-576.88 1443.25,-576.88 1443.25,-612.88"/>
<text xml:space="preserve" text-anchor="middle" x="1416.25" y="-591.38" font-family="Arial" font-size="10.00">Tests</text>
</g>
<!-- legend_test&#45;&gt;legend_core -->
<g id="edge50" class="edge">
<title>legend_test&#45;&gt;legend_core</title>
<path fill="none" stroke="orange" stroke-dasharray="5,2" d="M1443.46,-594.88C1459.14,-594.88 1479.19,-594.88 1496.98,-594.88"/>
<polygon fill="orange" stroke="orange" points="1496.76,-598.38 1506.76,-594.88 1496.76,-591.38 1496.76,-598.38"/>
<text xml:space="preserve" text-anchor="middle" x="1475.94" y="-600.03" font-family="Arial" font-size="8.00">test coverage</text>
</g>
</g>
</svg>
